<?xml version="1.0" standalone="no"?>
<!DOCTYPE svg PUBLIC "-//W3C//DTD SVG 20010904//EN"
 "http://www.w3.org/TR/2001/REC-SVG-20010904/DTD/svg10.dtd">
<svg version="1.0" xmlns="http://www.w3.org/2000/svg"
 width="300.000000pt" height="300.000000pt" viewBox="0 0 300.000000 300.000000"
 preserveAspectRatio="xMidYMid meet">
<metadata>
Created by potrace 1.14, written by Peter Selinger 2001-2017
</metadata>
<g transform="translate(0.000000,300.000000) scale(0.100000,-0.100000)"
fill="#000000" stroke="none">
<path d="M626 1828 c-12 -21 -20 -195 -30 -665 -1 -67 21 -83 113 -83 88 0
232 23 299 48 43 16 47 20 47 51 0 55 -17 58 -152 28 -65 -14 -137 -28 -161
-31 l-42 -4 7 221 c12 344 11 436 -7 447 -26 17 -59 11 -74 -12z"/>
<path d="M2039 1822 c-52 -34 -109 -97 -149 -167 -101 -177 -114 -400 -27
-494 55 -59 188 -80 291 -45 91 31 197 155 222 259 4 17 14 38 22 48 12 13 13
24 6 45 -9 26 -12 27 -94 30 -207 7 -374 -58 -319 -124 15 -18 46 -16 148 11
35 9 79 15 98 13 l35 -3 -34 -65 c-53 -103 -146 -152 -244 -130 -64 15 -79 39
-82 134 -6 128 24 215 112 333 73 96 120 108 213 53 57 -33 103 -22 103 25 0
49 -109 105 -203 105 -41 0 -63 -6 -98 -28z"/>
<path d="M1463 1773 c-42 -53 -101 -143 -168 -253 -32 -52 -61 -97 -66 -98
-23 -9 -38 -35 -38 -65 1 -18 -13 -62 -30 -99 -45 -98 -39 -138 20 -138 33 0
36 4 85 112 l39 87 106 26 c58 14 113 25 121 25 12 0 19 -17 27 -64 23 -130
53 -186 102 -186 48 0 54 29 25 118 -24 73 -81 323 -106 462 -21 117 -61 142
-117 73z m42 -210 c8 -32 14 -63 15 -70 0 -6 -34 -22 -75 -35 l-75 -24 21 35
c12 20 38 64 58 98 20 34 37 60 39 58 2 -2 10 -29 17 -62z"/>
</g>
</svg>
